PathFileType	4	(X/Y/Z)	C:/Users/beibeiliu/ov580/test_trc/capture2\sequence.16_training_dense_left.trc
DataRate	CameraRate	NumFrames	NumMarkers	Units	OrigDataRate	OrigDataStartFrame	OrigNumFrames
120	120	14	19	mm	120	101	400
Frame#	Time	ThumbCMC			ThumbMCP			ThumbIP			ThumbTip			IndexMCP			IndexPIP			IndexTip			MiddleMCP			MiddlePIP			MiddleTip			RingMCP			RingPIP			RingTip			PinkyMCP			PinkyPIP			PinkyTip			BackHand1			BackHand2			BackHand3	
		X0	Y0	Z0	X1	Y1	Z1	X2	Y2	Z2	X3	Y3	Z3	X4	Y4	Z4	X5	Y5	Z5	X6	Y6	Z6	X7	Y7	Z7	X8	Y8	Z8	X9	Y9	Z9	X10	Y10	Z10	X11	Y11	Z11	X12	Y12	Z12	X13	Y13	Z13	X14	Y14	Z14	X15	Y15	Z15	X16	Y16	Z16	X17	Y17	Z17	X18	Y18	Z18	
100	0.833333	-109.424	95.4513	-36.6618	-87.5967	92.926	-57.7993	-72.318	96.2911	-75.1895	-56.684	99.2461	-89.2309	-118.821	105.767	-114.07	-119.303	99.9505	-137.754	-123.859	93.4629	-166.817	-135.678	77.6689	-117.201	-129.104	49.6256	-108.787	-124.695	56.3288	-70.9835	-151.355	72.1023	-107.898	-141.542	47.4459	-92.5715	-138.964	62.8452	-59.8355	-168.509	67.1957	-98.9059	-153.285	49.4455	-81.3608	-149.354	67.0839	-54.029	-165.228	111.328	-70.1653	-163.837	111.2	-34.7408	-131.759	115.718	-50.5324	
101	0.841667	-109.012	101.684	-43.5088	-93.368	95.2106	-59.3498	-77.4324	99.2899	-79.8827	-60.9397	103.257	-94.0445	-122.036	103.948	-116.746	-120.976	96.1718	-139.189	-127.658	84.8372	-168.488	-136.303	77.6812	-113.979	-127.561	46.4646	-102.455	-127.258	55.4815	-69.2472	-149.884	66.4659	-107.066	-139.71	43.7918	-84.9511	-137.602	62.0315	-58.2777	-166.957	62.1431	-97.2737	-150.57	47.3054	-79.4251	-149.134	67.6526	-51.052	-167.8	109.138	-71.1291	-168.93	109.307	-41.1931	-135.341	119.38	-56.6732	
102	0.85	-109.891	105.667	-44.4206	-91.4706	100.881	-62.6485	-77.4935	101.813	-80.9439	-62.1496	104.542	-97.3802	-122.866	101.129	-120.991	-121.966	90.5777	-142.341	-127.46	76.7094	-163.792	-137.506	70.9979	-114.45	-122	45.689	-101.902	-123.945	55.9578	-66.3735	-152.243	61.578	-103.933	-136.037	43.3688	-83.067	-137.645	62.1743	-55.4903	-165.16	60.6772	-94.3738	-146.937	46.5616	-74.318	-149.081	67.3412	-48.8553	-170.829	104.99	-73.0519	-167.681	110.379	-42.6244	-141.118	118.713	-58.6485	
103	0.858333	-113.81	105.124	-44.172	-94.585	101.568	-60.6925	-76.4354	104.013	-80.5001	-62.6644	106.322	-97.8222	-125.813	95.354	-119.156	-123.189	81.4079	-141.436	-123.454	64.4224	-162.796	-135.866	68.1241	-111.661	-123.208	42.1056	-95.3229	-122.139	54.4962	-64.493	-148.174	59.1891	-102.107	-134.573	41.6904	-81.0349	-136.449	64.1043	-53.8071	-163.165	55.2722	-92.7571	-145.373	44.7656	-71.0369	-145.96	68.3072	-47.1397	-170.578	101.729	-73.3303	-169.691	109.712	-43.3644	-142.586	117.218	-59.0799	
104	0.866667	-114.051	107.02	-41.3642	-95.2408	101.9	-62.1601	-76.8481	104.031	-81.4412	-62.4748	107.069	-99.979	-124.355	91.1883	-118.321	-122.808	72.781	-139.599	-123.486	52.0487	-158.48	-136.795	64.4575	-108.625	-122.444	40.1197	-93.3148	-122.258	58.2538	-59.1848	-147.948	52.8396	-99.7518	-134.53	39.1386	-79.2263	-134.637	63.2479	-52.517	-165.04	55.4365	-89.7462	-146.005	42.0385	-69.5602	-147.023	63.9015	-44.6178	-172.894	101.151	-73.3195	-174.464	111.121	-39.0638	-139.892	117.199	-56.6361	
105	0.875	-115.625	106.791	-44.0173	-95.1487	101.56	-59.1385	-81.405	101.353	-82.1698	-67.067	103.508	-93.9977	-121.323	86.4261	-115.998	-121.638	67.6672	-133.008	-116.962	42.4086	-151.655	-131.747	63.519	-106.703	-120.78	38.2042	-90.9442	-119.961	54.5351	-56.3309	-149.407	55.3173	-96.8907	-131.807	38.3438	-73.1772	-135.313	63.7997	-48.4936	-165.177	48.7436	-86.7315	-147.299	37.8453	-65.6274	-143.966	62.1388	-46.1481	-168.711	100.099	-71.5475	-171.569	110.846	-39.7174	-143.901	113.372	-60.1912	
106	0.883333	-112.91	109.825	-42.1524	-93.0736	104.225	-56.0314	-79.7867	101.786	-80.8549	-65.0692	102.405	-99.0611	-121.286	79.041	-116.425	-116.776	58.5573	-131.045	-112.725	31.1741	-138.469	-132.139	55.6923	-104.322	-120.408	35.9192	-85.3428	-123.603	53.8447	-51.3602	-148.125	51.2339	-94.0013	-135.633	34.6741	-70.0838	-137.353	58.1659	-46.1238	-159.972	45.2797	-84.095	-148.315	35.4143	-59.6607	-148.749	65.617	-40.4952	-172.001	94.4732	-72.4204	-173.769	108.836	-39.3071	-141.575	114.999	-57.9558	
107	0.891667	-116.71	108.498	-41.3114	-95.4621	102.601	-61.1005	-81.3906	100.472	-78.6656	-65.395	101.47	-96.4658	-120.363	75.9727	-112.152	-115.223	49.4673	-124.435	-109.094	19.4784	-120.61	-132.056	50.9652	-100.54	-118.516	32.9874	-78.7033	-122.454	49.9219	-50.0306	-147.919	44.2789	-89.7588	-136.242	30.274	-65.206	-134.597	58.7736	-43.8536	-161.261	41.504	-81.4257	-146.478	35.0146	-58.2415	-146.627	63.0192	-41.364	-174.36	91.4124	-71.9915	-175.171	107.026	-40.7481	-144.749	114.247	-61.3583	
108	0.9	-117.716	109.14	-41.7226	-98.3592	100.058	-58.7488	-80.483	98.7051	-77.833	-66.73	96.396	-91.8225	-119.559	68.915	-109.308	-111.692	40.3468	-115.933	-99.2049	14.0085	-99.4474	-128.927	47.2745	-97.3562	-116.999	30.4382	-71.8193	-119.06	52.7039	-45.0932	-145.367	37.4298	-84.9362	-134.082	28.5416	-59.9953	-135.172	58.193	-40.6225	-160.57	37.1535	-75.6701	-145.16	33.9365	-49.6597	-143.709	60.8748	-37.3505	-172.288	89.4837	-71.8506	-175.773	106.025	-44.4531	-146.008	108.863	-61.8701	
109	0.908333	-120.663	107.765	-42.509	-96.9763	103.189	-55.4768	-83.0694	95.3386	-74.2035	-67.8405	92.4203	-92.5234	-118.383	60.3028	-102.542	-106.406	36.4747	-103.446	-94.5418	18.4726	-80.2411	-128.671	46.9281	-90.1827	-112.064	28.5289	-65.5697	-118.549	48.8815	-38.5057	-141.442	35.5373	-79.0796	-127.695	30.3528	-50.6283	-133.073	54.6686	-32.9619	-156.413	30.9584	-68.8597	-138.76	33.8527	-45.367	-144.053	61.1977	-29.6404	-174.022	84.1243	-66.7341	-178.682	104.136	-42.3724	-148.356	109.748	-59.223	
110	0.916667	-131.236	114.175	-32.5493	-106.027	108.807	-50.6227	-91.8024	101.721	-68.9422	-79.2308	97.4521	-85.7889	-111.768	63.8811	-90.8879	-92.7918	39.934	-84.0066	-80.2461	32.446	-59.2776	-116.386	46.033	-78.3813	-100.767	34.9016	-51.9664	-111.092	59.831	-24.3484	-128.543	35.6588	-67.6219	-115.227	33.3254	-39.655	-127.907	58.2758	-20.0396	-142.832	29.4013	-57.9183	-128.93	34.3609	-33.478	-138.515	59.9814	-21.4095	-174.82	71.342	-60.7838	-187.005	90.1575	-37.5681	-156.985	105.307	-54.9847	
111	0.925	-159.016	108.324	-25.3748	-138.714	118.407	-36.0827	-119.864	121.531	-55.7701	-102.941	123.455	-71.2198	-104.103	76.1249	-71.6441	-77.6858	66.8109	-65.3178	-59.6639	63.6173	-37.613	-100.21	57.9394	-60.1062	-83.6445	56.037	-33.5647	-103.93	71.3162	-4.4252	-107.457	40.567	-45.1995	-97.2321	47.8813	-17.0582	-121.363	65.4807	-1.63439	-119.29	26.5521	-37.4374	-109.827	40.6126	-11.1397	-137.223	63.0476	-0.745189	-161.353	49.1227	-52.2201	-187.917	60.0448	-30.8654	-170.676	82.7949	-44.5028	
112	0.933333	-171.869	103.002	-24.6185	-152.687	117.905	-38.5298	-134.278	124.495	-54.1838	-117.856	133.558	-68.3736	-102.394	84.108	-62.2084	-72.5588	85.5217	-55.7355	-49.2321	83.6735	-34.8389	-96.8773	62.5432	-48.9314	-77.2286	74.1392	-25.6354	-96.4941	83.2781	4.11847	-95.7563	50.5076	-33.6977	-90.1196	61.4756	-6.91974	-117.581	74.0766	7.06117	-103.097	37.2006	-24.0233	-101.531	51.4683	-2.7033	-132.018	64.6891	5.84503	-154.064	40.4236	-42.6583	-179.36	45.7535	-28.7567	-168.479	72.8587	-44.3997	
113	0.941667	-172.906	99.0881	-28.3951	-160.487	114.809	-38.6849	-141.637	126.79	-56.176	-127.391	136.985	-70.6251	-103.702	86.8315	-60.5651	-73.0397	90.0505	-55.7553	-48.4721	92.2823	-41.4959	-90.3793	68.8569	-44.785	-77.2879	82.2688	-22.9652	-102.73	88.0161	8.60691	-92.0947	57.5614	-31.6446	-89.3554	69.6331	-6.07463	-120.73	76.7523	11.0928	-100.367	39.9183	-22.6632	-100.54	56.6745	4.49312	-132.492	64.2638	11.2434	-147.458	42.184	-44.6606	-176.547	37.3801	-27.6021	-169.227	70.108	-42.7229	
